<?xml version="1.0" standalone="no"?><!DOCTYPE svg PUBLIC "-//W3C//DTD SVG 1.1//EN" "http://www.w3.org/Graphics/SVG/1.1/DTD/svg11.dtd"><svg t="1580803843822" class="icon" viewBox="0 0 1024 1024" version="1.1" xmlns="http://www.w3.org/2000/svg" p-id="2824" xmlns:xlink="http://www.w3.org/1999/xlink" width="200" height="200"><defs><style type="text/css"></style></defs><path d="M512.06144 603.3664c-21.28896 0-41.68192-4.80256-57.45152-13.55776L95.24736 389.82656c-31.64672-17.62816-36.37248-45.71136-36.352-60.8768 0-15.19104 4.7104-43.25888 36.352-60.86144l359.32672-199.77728c31.5136-17.54624 83.31776-17.5104 114.78016 0.01024l359.39328 199.94624c31.6672 17.62304 36.352 45.70624 36.352 60.89728 0 15.17056-4.69504 43.25376-36.352 60.83584l-359.31648 199.79776c-15.73376 8.76544-36.13184 13.568-57.3696 13.568zM128.45056 328.96512l345.47712 192.2048c19.23072 10.70592 56.99584 10.70592 76.2112 0.03584l345.4464-192.05632-345.49248-192.22016c-19.24096-10.69568-56.99072-10.71616-76.20608-0.01536l-345.43616 192.0512z" fill="" p-id="2825"></path><path d="M889.64096 521.50272l-339.50208 188.76416c-19.2256 10.7008-56.98048 10.7008-76.2112-0.03584l-339.24096-188.72832H58.97216c0.73216 15.70816 6.912 41.05728 36.26496 57.40032l359.3728 199.92576c15.7696 8.76032 36.15744 13.63968 57.45152 13.63968 21.23776 0 41.63072-4.83328 57.37472-13.60896l359.31648-199.77216c29.4912-16.42496 35.6096-41.8816 36.27008-57.58464h-75.38176z" fill="" p-id="2826"></path><path d="M895.25248 684.00128l0.32768 0.19968-345.4464 192.06656c-19.2256 10.71616-56.98048 10.67008-76.2112-0.03584l-345.47712-192.2304H58.88512c0 15.22176 4.736 43.30496 36.352 60.89728l359.3728 199.936c15.7696 8.77056 36.15744 13.60896 57.45152 13.60896 21.23776 0 41.63072-4.8384 57.37472-13.57312l359.31648-199.80288c31.6672-17.60768 36.352-45.6448 36.352-60.8256v-0.23552h-69.85216z" fill="" p-id="2827"></path></svg>