<?xml version="1.0" standalone="no"?><!DOCTYPE svg PUBLIC "-//W3C//DTD SVG 1.1//EN" "http://www.w3.org/Graphics/SVG/1.1/DTD/svg11.dtd"><svg t="1580803819914" class="icon" viewBox="0 0 1024 1024" version="1.1" xmlns="http://www.w3.org/2000/svg" p-id="2532" xmlns:xlink="http://www.w3.org/1999/xlink" width="200" height="200"><defs><style type="text/css"></style></defs><path d="M420.5 775.9c-196.6 0.2-356.1-159.1-356.2-355.7C64.1 223.6 223.4 64.1 420 63.9c196.6-0.1 356.1 159.1 356.2 355.8 0.1 94.6-37.5 185.3-104.4 252.1-66.6 66.6-157 104.1-251.3 104.1z m0-591.1c-130.1 0.8-235 107-234.2 237.1s107 235 237.1 234.2c130.1-0.8 235-107 234.2-237.1-0.4-62.1-25.2-121.5-69.2-165.3-44.4-44.6-104.9-69.5-167.9-68.9z m479.7 775.3c-16-0.2-31.3-6.6-42.5-17.9L586.8 671.8c-23-23.7-23-61.4 0-85.1 23.3-23.5 61.2-23.7 84.7-0.4l0.4 0.4 270.9 270.4c23.5 23.7 23.3 62-0.4 85.5-11.2 11.1-26.4 17.4-42.2 17.5z" p-id="2533" fill="#000000"></path></svg>